<svg id="Layer_1" data-name="Layer 1" xmlns="http://www.w3.org/2000/svg" viewBox="0 0 62.52 34"><defs><style>.cls-1{fill:#fff;}</style></defs><g id="Group_4562" data-name="Group 4562"><path id="Path_27247" data-name="Path 27247" class="cls-1" d="M78.33,73.16A14.19,14.19,0,0,0,78,71.73c-.08-.23-.14-.46-.22-.68a10.73,10.73,0,0,0-2.32-3.75,10.16,10.16,0,0,0-3.57-2.36,12.39,12.39,0,0,0-4.62-.83H61v1.4h6.26a10.45,10.45,0,0,1,3.91.7,8.19,8.19,0,0,1,3,2.05,9.22,9.22,0,0,1,1.94,3.29A9.78,9.78,0,0,1,76.49,73a13.47,13.47,0,0,1,.29,2.36c0,.22,0,.44,0,.66a13.33,13.33,0,0,1-.67,4.39s0,0,0,.06a10,10,0,0,1-1.19,2.35,9.65,9.65,0,0,1-.75.94,8.11,8.11,0,0,1-3,2,10.45,10.45,0,0,1-3.91.7H61v1.39h6.26A12.1,12.1,0,0,0,71.86,87a10.11,10.11,0,0,0,3.58-2.36c.07-.08.14-.17.21-.24a10.59,10.59,0,0,0,1-1.37,11.84,11.84,0,0,0,1.06-2.14,13.87,13.87,0,0,0,.82-5A15.65,15.65,0,0,0,78.33,73.16Z" transform="translate(-39.6 -53.87)"/><path id="Path_27248" data-name="Path 27248" class="cls-1" d="M90,82.83a11.2,11.2,0,0,0,.51-3.54A11.55,11.55,0,0,0,90,75.74a8.88,8.88,0,0,0-.63-1.49A7.27,7.27,0,0,0,88.49,73l0,0a6.49,6.49,0,0,0-2.35-1.69,8.75,8.75,0,0,0-6.42,0,7,7,0,0,0-.86.45,11.32,11.32,0,0,1,.35,1.42,5,5,0,0,1,1.11-.7,6.69,6.69,0,0,1,5.22,0,4.88,4.88,0,0,1,1.86,1.48l.21.3a6.53,6.53,0,0,1,.87,1.92.49.49,0,0,1,0,.11,11.79,11.79,0,0,1,.37,3,11.48,11.48,0,0,1-.37,3l0,.12a6.37,6.37,0,0,1-.9,1.92,2.4,2.4,0,0,1-.18.26,4.85,4.85,0,0,1-1.86,1.47,6,6,0,0,1-2.61.51,6.14,6.14,0,0,1-2.61-.51,4.85,4.85,0,0,1-1.86-1.47,5.93,5.93,0,0,1-.87-1.55,9.86,9.86,0,0,1-1,1.36,7,7,0,0,0,.77,1.1,6.65,6.65,0,0,0,2.4,1.73,8.91,8.91,0,0,0,6.43,0,6.51,6.51,0,0,0,2.31-1.64l.08-.09a7.17,7.17,0,0,0,.84-1.2A9.06,9.06,0,0,0,90,82.83Z" transform="translate(-39.6 -53.87)"/><path id="Path_27249" data-name="Path 27249" class="cls-1" d="M99.32,73.32l.15-.14.42-.57a7,7,0,0,0-2.2-1.41,7.56,7.56,0,0,0-2.9-.52,7.7,7.7,0,0,0-3.21.63A6.51,6.51,0,0,0,89.3,73l0,0a6.91,6.91,0,0,1,.85,1.23c.08-.12.16-.24.24-.34a5.18,5.18,0,0,1,1.88-1.47,6.8,6.8,0,0,1,4.34-.29,6.71,6.71,0,0,1,1.21.5,5.69,5.69,0,0,1,.78.49.91.91,0,0,0,.46.23A.43.43,0,0,0,99.32,73.32Z" transform="translate(-39.6 -53.87)"/><path id="Path_27250" data-name="Path 27250" class="cls-1" d="M98.37,85.46,98,85.7a6.52,6.52,0,0,1-1.34.62,6,6,0,0,1-2,.28,5.62,5.62,0,0,1-2.39-.48,5,5,0,0,1-1.83-1.42c-.09-.12-.18-.24-.26-.37a7.17,7.17,0,0,1-.84,1.2l-.09.09a6.32,6.32,0,0,0,2.26,1.67,7.09,7.09,0,0,0,2.91.57,8.48,8.48,0,0,0,1.81-.17,8.24,8.24,0,0,0,1.6-.5c.15-.06.29-.14.43-.21a1.66,1.66,0,0,1-.14-.66,1.53,1.53,0,0,1,.12-.6A1.26,1.26,0,0,1,98.37,85.46Z" transform="translate(-39.6 -53.87)"/><path id="Path_27251" data-name="Path 27251" class="cls-1" d="M102,85.72a1.53,1.53,0,0,0-.32-.5,1.58,1.58,0,0,0-.48-.33,1.29,1.29,0,0,0-.58-.13,1.34,1.34,0,0,0-.59.13,1.53,1.53,0,0,0-.66.57,1.23,1.23,0,0,0-.12.26,1.67,1.67,0,0,0,0,1.26,1.6,1.6,0,0,0,.29.44,1.42,1.42,0,0,0,1.06.44,1.28,1.28,0,0,0,.58-.11,1.58,1.58,0,0,0,.48-.33,1.8,1.8,0,0,0,.32-.49,1.58,1.58,0,0,0,.12-.61A1.53,1.53,0,0,0,102,85.72Z" transform="translate(-39.6 -53.87)"/><g id="Group_4561" data-name="Group 4561"><g id="Group_4559" data-name="Group 4559"><path id="Path_27252" data-name="Path 27252" class="cls-1" d="M57.2,64.11v.59a1.22,1.22,0,0,1-.24.69l-15.07,21H57.06v1.42H39.6v-.62a1.09,1.09,0,0,1,.21-.6l15.1-21.1H40V64.11Z" transform="translate(-39.6 -53.87)"/></g><g id="Group_4560" data-name="Group 4560"><path id="Path_27253" data-name="Path 27253" class="cls-1" d="M60,87.86H58.28V64.11H60Z" transform="translate(-39.6 -53.87)"/></g></g></g><path id="Path_27259" data-name="Path 27259" d="M40.51,56v1.25h-.45V53.9h1a2,2,0,0,1,.55.08,1,1,0,0,1,.39.21.9.9,0,0,1,.23.32,1.05,1.05,0,0,1,.07.43.94.94,0,0,1-.08.43.85.85,0,0,1-.24.33.92.92,0,0,1-.39.21A1.59,1.59,0,0,1,41,56Zm0-.36H41a.78.78,0,0,0,.34-.05.77.77,0,0,0,.25-.14.54.54,0,0,0,.15-.22.69.69,0,0,0,0-.28.66.66,0,0,0-.19-.5.86.86,0,0,0-.6-.18h-.53Zm6.14-.06a1.62,1.62,0,0,1-.12.69,1.43,1.43,0,0,1-.33.54,1.54,1.54,0,0,1-.52.35,1.79,1.79,0,0,1-1.34,0,1.45,1.45,0,0,1-.52-.35,1.6,1.6,0,0,1-.34-.54,2,2,0,0,1,0-1.37,1.6,1.6,0,0,1,.34-.54,1.35,1.35,0,0,1,.52-.36,1.93,1.93,0,0,1,1.34,0,1.53,1.53,0,0,1,.85.9A1.6,1.6,0,0,1,46.65,55.57Zm-.46,0a2.09,2.09,0,0,0-.08-.55,1.14,1.14,0,0,0-.24-.41,1.08,1.08,0,0,0-.37-.26,1.41,1.41,0,0,0-.49-.09,1.33,1.33,0,0,0-.49.09,1.08,1.08,0,0,0-.37.26,1.14,1.14,0,0,0-.24.41,1.76,1.76,0,0,0-.09.55,1.67,1.67,0,0,0,.09.55,1.1,1.1,0,0,0,.24.42.94.94,0,0,0,.37.25,1,1,0,0,0,.49.09,1,1,0,0,0,.48-.09,1,1,0,0,0,.38-.25,1.24,1.24,0,0,0,.24-.42A2,2,0,0,0,46.19,55.57ZM47.6,53.9H48a.17.17,0,0,1,.1,0,.1.1,0,0,1,0,.08l.69,2.32a.57.57,0,0,1,0,.14l0,.15,0-.16a.65.65,0,0,1,0-.13L49.73,54a.13.13,0,0,1,.06-.07.12.12,0,0,1,.1,0H50a.14.14,0,0,1,.09,0,.16.16,0,0,1,.06.08L51,56.33a1.28,1.28,0,0,1,.07.28l0-.15,0-.13L51.77,54a.18.18,0,0,1,0-.07.14.14,0,0,1,.1,0h.35l-1,3.34h-.4L50,54.7a1.36,1.36,0,0,1,0-.17l0,.09a.24.24,0,0,1,0,.08L49,57.24h-.4Zm7.87,0v.37h-1.6v1.11h1.29v.35H53.87v1.14h1.6v.37H53.41V53.9Zm1.84,2v1.39h-.45V53.9h1a2,2,0,0,1,.54.07,1.15,1.15,0,0,1,.39.18.84.84,0,0,1,.22.3,1,1,0,0,1,.07.38,1,1,0,0,1-.06.33.74.74,0,0,1-.16.27.75.75,0,0,1-.26.21,1,1,0,0,1-.34.13.54.54,0,0,1,.15.15l1,1.32h-.4a.19.19,0,0,1-.18-.09L57.88,56l-.08-.08a.36.36,0,0,0-.14,0Zm0-.33h.48a1,1,0,0,0,.34-.05.64.64,0,0,0,.26-.13.8.8,0,0,0,.15-.21.86.86,0,0,0,.05-.27.53.53,0,0,0-.2-.45,1,1,0,0,0-.58-.15h-.5Zm5.26-1.62v.37H61v1.11h1.3v.35H61v1.14h1.6v.37h-2V53.9Zm4.24,1.67a2,2,0,0,1-.12.69,1.58,1.58,0,0,1-.33.52,1.46,1.46,0,0,1-.52.34,1.93,1.93,0,0,1-.67.12H63.92V53.9h1.25a1.93,1.93,0,0,1,.67.12,1.8,1.8,0,0,1,.52.34,1.53,1.53,0,0,1,.33.53A2,2,0,0,1,66.81,55.57Zm-.46,0a1.76,1.76,0,0,0-.09-.55,1.27,1.27,0,0,0-.23-.41,1,1,0,0,0-.38-.25,1.32,1.32,0,0,0-.48-.09h-.8v2.61h.8a1.32,1.32,0,0,0,.48-.09,1.12,1.12,0,0,0,.38-.26,1.27,1.27,0,0,0,.23-.41A1.67,1.67,0,0,0,66.35,55.57Zm3.37,1.67V53.9h1.07a2.39,2.39,0,0,1,.53.06,1.22,1.22,0,0,1,.36.18.56.56,0,0,1,.21.27.92.92,0,0,1,.07.36.61.61,0,0,1,0,.24.53.53,0,0,1-.11.21.86.86,0,0,1-.2.18.93.93,0,0,1-.27.12,1.06,1.06,0,0,1,.55.27.65.65,0,0,1,.18.5.87.87,0,0,1-.07.39,1,1,0,0,1-.23.3,1.09,1.09,0,0,1-.37.19,1.68,1.68,0,0,1-.5.07Zm.45-1.52v1.16h.73a1.24,1.24,0,0,0,.33,0,.76.76,0,0,0,.23-.13.53.53,0,0,0,.13-.19.67.67,0,0,0,0-.24.49.49,0,0,0-.18-.41.91.91,0,0,0-.56-.15Zm0-.32h.6a1.24,1.24,0,0,0,.33,0,.84.84,0,0,0,.23-.12.49.49,0,0,0,.14-.18.45.45,0,0,0,0-.23.49.49,0,0,0-.17-.43.91.91,0,0,0-.55-.14h-.61Zm4.55.51v1.33h-.45V55.91l-1.22-2h.39a.17.17,0,0,1,.1,0l.06.08.76,1.3a1.09,1.09,0,0,1,.08.15l.06.14,0-.14a1,1,0,0,1,.08-.15l.76-1.3.06-.07a.12.12,0,0,1,.09,0h.4Z" transform="translate(-39.6 -53.87)"/><path id="Path_27216" data-name="Path 27216" class="cls-1" d="M100.79,53.87a.9.9,0,0,0-.85,1v.27h-.25a.26.26,0,0,0-.24.28V57a.26.26,0,0,0,.24.28h2.19a.27.27,0,0,0,.25-.28V55.37a.27.27,0,0,0-.25-.28h-.24v-.27a.9.9,0,0,0-.81-.94Zm0,.27a.65.65,0,0,1,.61.68v.27h-1.22v-.27A.64.64,0,0,1,100.79,54.14Z" transform="translate(-39.6 -53.87)"/></svg>