<svg id="Layer_1" data-name="Layer 1" xmlns="http://www.w3.org/2000/svg" viewBox="0 0 992.13 377.23"><path d="M612.38,581q13.08-35,13.06-78.67a247.44,247.44,0,0,0-4-44.8A203.64,203.64,0,0,0,615.85,435c-1.12-3.67-2.15-7.4-3.47-10.94q-13.07-35-36.78-59.45A159.25,159.25,0,0,0,518.81,327q-33.07-13.08-73.31-13.11H346V336H445.5q34.14,0,62.11,11.2a131.15,131.15,0,0,1,47.86,32.54Q575.32,401.1,586.25,432a176.57,176.57,0,0,1,6.06,22.37A222.42,222.42,0,0,1,596.82,492c.13,3.46.37,6.85.37,10.42,0,26.14-3.58,49.34-10.67,69.74-.1.29-.16.61-.27.9a156,156,0,0,1-19,37.31,134.64,134.64,0,0,1-11.82,15,131.05,131.05,0,0,1-47.86,32.5Q479.62,669,445.5,669H346v22.13H445.5q40.25,0,73.31-13.07a159,159,0,0,0,56.79-37.57c1.17-1.21,2.18-2.57,3.31-3.82a160.27,160.27,0,0,0,16.64-21.72A182.49,182.49,0,0,0,612.38,581Z" transform="translate(-6.44 -313.88)"/><path d="M806.49,611.15q8.13-25.06,8.14-56.24t-8.14-56.4A133.85,133.85,0,0,0,796.42,475a113.2,113.2,0,0,0-13.51-19.5c-.22-.24-.47-.45-.69-.7a103.52,103.52,0,0,0-37.3-26.89q-22.51-9.76-51-9.72t-51,9.72A110.21,110.21,0,0,0,629.3,435a199.28,199.28,0,0,1,5.57,22.62,80.47,80.47,0,0,1,17.54-11.17q17.75-8.26,41.46-8.29t41.46,8.29A79.21,79.21,0,0,1,764.92,470c1.16,1.49,2.18,3.13,3.25,4.71a106.53,106.53,0,0,1,13.94,30.53c.16.58.38,1.1.54,1.69q5.85,21.54,5.85,48,0,26.63-5.85,48.13c-.19.66-.43,1.26-.62,1.92a105.1,105.1,0,0,1-14.24,30.58c-1,1.37-1.85,2.81-2.87,4.11A78.57,78.57,0,0,1,735.33,663q-17.73,8.13-41.46,8.11T652.41,663a78.27,78.27,0,0,1-29.59-23.35A97.65,97.65,0,0,1,609,614.94a159.46,159.46,0,0,1-16.64,21.72,112.1,112.1,0,0,0,12.32,17.4,104.23,104.23,0,0,0,38.14,27.47q22.53,9.57,51,9.59t51-9.59a103,103,0,0,0,36.61-26c.44-.49.94-.92,1.38-1.42a112.74,112.74,0,0,0,13.25-19A132.4,132.4,0,0,0,806.49,611.15Z" transform="translate(-6.44 -313.88)"/><path d="M954.77,460.11a27.87,27.87,0,0,0,2.51-2.26l6.64-9.07a112.66,112.66,0,0,0-35-22.39q-20.17-8.26-46-8.24-28.83,0-51.07,10a105.05,105.05,0,0,0-36.17,26.63c.22.25.47.46.69.7A113.2,113.2,0,0,1,809.87,475c1.25-1.83,2.48-3.68,3.84-5.39a81.13,81.13,0,0,1,29.85-23.3q17.76-8.14,40.65-8.16,16.54,0,28.16,3.6a104.71,104.71,0,0,1,19.31,7.9,97.28,97.28,0,0,1,12.41,7.85c3.08,2.39,5.56,3.6,7.33,3.6A5.31,5.31,0,0,0,954.77,460.11Z" transform="translate(-6.44 -313.88)"/><path d="M939.76,653c-1.76,1.24-3.5,2.48-5.56,3.79a104.77,104.77,0,0,1-21.31,9.85c-8.63,3-19.35,4.51-32.11,4.51q-20.82,0-37.87-7.72a79.34,79.34,0,0,1-29.07-22.52C812.34,639,811,637,809.61,635a112.74,112.74,0,0,1-13.25,19c-.44.5-.94.93-1.38,1.42a100.06,100.06,0,0,0,35.82,26.44q20.9,9.18,46.25,9.2a142.77,142.77,0,0,0,28.64-2.78,129.12,129.12,0,0,0,25.47-7.9c2.41-1,4.6-2.24,6.85-3.4a25.6,25.6,0,0,1-.37-20A23.22,23.22,0,0,1,939.76,653Z" transform="translate(-6.44 -313.88)"/><path d="M996.6,657a24.05,24.05,0,0,0-12.69-13.19,21.5,21.5,0,0,0-9.23-2,21.28,21.28,0,0,0-9.35,2,25.14,25.14,0,0,0-7.43,5.29,23,23,0,0,0-3,3.85,24.32,24.32,0,0,0-2,4,26.56,26.56,0,0,0,.35,20,23.75,23.75,0,0,0,4.66,7.05,22.37,22.37,0,0,0,16.78,7,22.8,22.8,0,0,0,9.23-1.87,24.34,24.34,0,0,0,7.6-5.16,26,26,0,0,0,5.09-7.77,23.61,23.61,0,0,0,2-9.72A24.05,24.05,0,0,0,996.6,657Z" transform="translate(-6.44 -313.88)"/><path d="M13.37,336.55h236.2L9.64,671.66a16.35,16.35,0,0,0-3.2,9.59v9.87H283.7V668.45H42.7L282.09,334.14a18.8,18.8,0,0,0,3.74-10.92v-9.34H13.37Z" transform="translate(-6.44 -313.88)"/><rect x="296.57" width="27.46" height="377.23"/></svg>