<?xml version="1.0" encoding="utf-8"?>
<!-- Generator: Adobe Illustrator 24.1.0, SVG Export Plug-In . SVG Version: 6.00 Build 0)  -->
<svg version="1.1" id="Layer_1" xmlns="http://www.w3.org/2000/svg" xmlns:xlink="http://www.w3.org/1999/xlink" x="0px" y="0px"
	 viewBox="0 0 283.46 283.46" style="enable-background:new 0 0 283.46 283.46;" xml:space="preserve">
<style type="text/css">
	.st0{fill:#010202;}
	.st1{fill:none;stroke:#010202;stroke-width:0.5;stroke-miterlimit:2.6131;}
</style>
<g>
	<g>
		<path class="st0" d="M159.01,148.87c-0.79-1.96-2.11-3.81-3.24-5.76c-2.09-3.62-4.44-7.81-6.54-11.46
			c-1.73-3.01-3.34-6.87-7.64-6.93c-4.47-0.06-5.95,3.88-7.57,6.73c-5.15,9.05-15.67,27.26-15.67,27.26h4.86
			c0,0,10.04-17.76,15.02-26.74c0.64-1.15,1.9-2.65,3.37-2.65c2.23,0,3.34,2.65,4.34,4.47c2.68,4.87,5.26,9.54,7.77,14.24
			c0.79,1.48,2.39,3.43,1.29,5.44c-0.72,1.31-2.16,1.23-4.21,1.23c0,0.03-19.81,0-19.81,0v4.01h18c0,0,4.24,0.13,5.96-0.19
			c2.84-0.53,4.39-2.74,4.79-5.57c0-0.24,0-0.47,0-0.71C159.63,150.99,159.4,149.85,159.01,148.87z"/>
		<path class="st0" d="M34.56,126.77h21.3l-21.64,30.22c-0.19,0.27-0.29,0.56-0.29,0.87v0.89h25v-2.04H37.2l21.59-30.15
			c0.22-0.32,0.34-0.65,0.34-0.99v-0.84H34.56V126.77z"/>
		<rect x="67.45" y="124.72" class="st0" width="2.48" height="34.02"/>
		<path class="st0" d="M112.21,124.8c-0.13,0.05-0.26,0.18-0.38,0.38l-13.37,23.63c-0.13,0.22-0.24,0.46-0.35,0.71
			c-0.1,0.25-0.2,0.5-0.3,0.76c-0.18-0.51-0.38-0.99-0.63-1.44l-13.73-23.66c-0.13-0.21-0.26-0.34-0.4-0.38
			c-0.14-0.05-0.32-0.07-0.54-0.07h-1.68v34.02h2.14v-28.99c0-0.43-0.02-0.88-0.07-1.35l13.75,23.8c0.24,0.42,0.56,0.62,0.96,0.62
			h0.38c0.42,0,0.74-0.21,0.96-0.62l13.39-23.78c-0.05,0.47-0.07,0.91-0.07,1.32v28.99h2.16v-34.02h-1.71
			C112.52,124.72,112.34,124.75,112.21,124.8z"/>
	</g>
	<g>
		<g>
			<path class="st0" d="M238.74,158.74h-1.9c-0.22,0-0.41-0.06-0.55-0.18c-0.14-0.12-0.26-0.28-0.34-0.47l-4.02-9.88h-16.71
				l-3.99,9.88c-0.06,0.18-0.18,0.33-0.34,0.46c-0.16,0.13-0.35,0.19-0.58,0.19h-1.88l13.92-34.02h2.45L238.74,158.74z
				 M215.97,146.38h15.24l-6.95-17.19c-0.11-0.27-0.22-0.58-0.34-0.93c-0.11-0.34-0.22-0.71-0.34-1.09
				c-0.11,0.38-0.22,0.75-0.34,1.09c-0.11,0.34-0.22,0.66-0.34,0.95L215.97,146.38z"/>
		</g>
		<rect x="247.05" y="124.72" class="st0" width="2.48" height="34.02"/>
	</g>
	<path class="st1" d="M184.14,148.96l-7.53,7.39l-2.3-2.18l7.53-7.49 M193.96,139.08l-7.63,7.59 M193.96,134.5l2.51-2.5l2.3,2.29
		l-2.51,2.5 M184.14,144.38l7.53-7.49 M174.21,148.96l-2.51,2.5l-2.3-2.29l2.51-2.5 M184.14,139.08l-7.63,7.59 M184.14,134.5
		l7.42-7.39l2.3,2.29l-7.53,7.39 M174.21,144.38l7.63-7.59 M191.35,141.78l7.42,7.39l-2.3,2.29l-7.42-7.49 M186.75,141.78
		l-12.44-12.38l2.3-2.29l12.44,12.38 M186.75,151.56l-7.63-7.59 M191.35,151.56l2.51,2.6l-2.3,2.18l-2.51-2.5 M181.42,141.78
		l7.63,7.49 M176.82,141.78l-7.42-7.49l2.3-2.29l7.42,7.49 M193.96,148.96l-9.93,9.78l-4.91-4.89 M191.35,131.9l9.83,9.88
		l-4.91,4.89 M179.12,129.61l4.91-4.89l5.02,4.89 M174.21,134.5l2.61-2.6 M176.82,151.56l-9.83-9.78l4.91-4.99 M191.66,146.57
		l-7.63,7.59l-2.61-2.6 M189.05,134.19l7.53,7.59l-2.61,2.6 M181.42,131.9l2.61-2.6l2.72,2.6 M176.51,136.79l2.72-2.6
		 M179.22,149.27l-7.63-7.49l2.61-2.7"/>
</g>
</svg>
